<?xml version="1.0" encoding="UTF-8"?>
<svg width="240px" height="240px" viewBox="0 0 240 240" version="1.1" xmlns="http://www.w3.org/2000/svg" xmlns:xlink="http://www.w3.org/1999/xlink">
    <!-- Generator: Sketch 53 (72520) - https://sketchapp.com -->
    <title>Group 4</title>
    <desc>Created with Sketch.</desc>
    <defs>
        <linearGradient x1="50%" y1="16.5289256%" x2="0%" y2="83.4710744%" id="linearGradient-1">
            <stop stop-color="#FFEE7E" offset="0%"></stop>
            <stop stop-color="#FFD848" offset="100%"></stop>
        </linearGradient>
    </defs>
    <g id="Page-1" stroke="none" stroke-width="1" fill="none" fill-rule="evenodd">
        <g id="Conversation-Copy" transform="translate(-63.000000, -235.000000)">
            <g id="Group-4" transform="translate(63.000000, 235.000000)">
                <circle id="Oval" fill="#19284A" cx="120" cy="120" r="120"></circle>
                <path d="M150.157139,51.0589048 C150.221805,47.9727776 150.105406,46.0227879 150.105406,46.0227879 L120.151966,46 L120.151966,46 L120,46 L119.848034,46 L119.848034,46 L89.8913606,46.0227879 C89.8913606,46.0227879 89.7781945,47.9727776 89.8428608,51.0589048 L70,51.0589048 L70,54.3533782 C70,55.1053776 70.1260993,72.8440985 80.9997413,82.5614929 C85.5360838,86.6144764 91.194387,88.6523622 97.8647181,88.6556176 C98.8735127,88.6556176 99.9114071,88.587254 100.962235,88.4961026 C104.751681,93.7210332 109.129591,97.3801123 114.053932,99.2031411 L114.053932,113.673432 L99.5977755,113.673432 L99.5977755,122.736489 L94.8221676,122.736489 L94.8221676,127.818182 L119.848034,127.818182 L120.151966,127.818182 L145.177832,127.818182 L145.177832,122.739745 L140.398991,122.739745 L140.398991,113.676687 L125.942835,113.676687 L125.942835,99.2063965 C130.863942,97.3833678 135.245085,93.7242886 139.034532,88.499358 C140.091826,88.5905094 141.129721,88.6556176 142.138515,88.6556176 C148.805613,88.6491068 154.463916,86.6144764 159.000259,82.5582374 C169.873901,72.8408431 170,55.1021222 170,54.3501228 L170,51.0589048 L150.157139,51.0589048 Z M85.6589899,76.9996749 C79.449697,71.4966544 77.6137374,62.0767779 77.0707071,57.1111111 L90.5107071,57.1111111 C91.079596,63.2971537 92.4177778,71.0046196 95.5046465,77.779809 C96.070303,79.0228443 96.6650505,80.2011381 97.2727273,81.3535354 C92.6408081,81.1754965 88.7426263,79.7285257 85.6589899,76.9996749 Z M154.339636,76.9996749 C151.258739,79.7317628 147.3567,81.1754965 142.727273,81.3535354 C143.335047,80.2043752 143.929889,79.0228443 144.495636,77.779809 C147.582999,71.0046196 148.921395,63.2971537 149.487142,57.1111111 L162.929293,57.1111111 C162.386176,62.0735409 160.553155,71.4934173 154.339636,76.9996749 Z" id="Shape" fill="url(#linearGradient-1)" fill-rule="nonzero"></path>
                <text id="+20!" font-family="VarelaRound-Regular, Varela Round" font-size="36" font-weight="normal" letter-spacing="1.125" fill="#FFFFFF">
                    <tspan x="80.468" y="186">+20!</tspan>
                </text>
                <polygon id="Star" fill="#F1FDFF" points="47 94 38.7710065 98.3262379 40.3426044 89.163119 33.6852088 82.6737621 42.8855032 81.336881 47 73 51.1144968 81.336881 60.3147912 82.6737621 53.6573956 89.163119 55.2289935 98.3262379"></polygon>
                <polygon id="Star-Copy" fill="#F1FDFF" points="193 94 184.771006 98.3262379 186.342604 89.163119 179.685209 82.6737621 188.885503 81.336881 193 73 197.114497 81.336881 206.314791 82.6737621 199.657396 89.163119 201.228994 98.3262379"></polygon>
            </g>
        </g>
    </g>
</svg>